<mxfile host="app.diagrams.net" modified="2024-08-02T05:44:13.010Z" agent="Mozilla/5.0 (Macintosh; Intel Mac OS X 10_15_7) AppleWebKit/605.1.15 (KHTML, like Gecko) Version/17.5 Safari/605.1.15" version="24.7.1" etag="Y7ZX_crlsdfUsHA8xLeT" type="github">
  <diagram name="Strona-1" id="lKdgEwF_pGzFDdxcCawQ">
    <mxGraphModel>
      <root>
        <mxCell id="0" />
        <mxCell id="1" parent="0" />
      </root>
    </mxGraphModel>
  </diagram>
</mxfile>
